<?xml version="1.0" encoding="UTF-8"?> <!-- Generated by IcoMoon.io --> <svg xmlns="http://www.w3.org/2000/svg" xmlns:xlink="http://www.w3.org/1999/xlink" width="138" height="32" viewBox="0 0 138 32"> <path fill="#00a3fd" d="M4.923 1.231c0-0.68 0.539-1.231 1.234-1.231h6.147c0.682 0 1.234 0.546 1.234 1.231 0 0.68-0.539 1.231-1.234 1.231h-6.147c-0.682 0-1.234-0.546-1.234-1.231zM22.154 1.231c0-0.68 0.539-1.231 1.234-1.231h6.147c0.682 0 1.234 0.546 1.234 1.231 0 0.68-0.539 1.231-1.234 1.231h-6.147c-0.682 0-1.234-0.546-1.234-1.231zM1.231 4.923c0-0.68 0.551-1.231 1.229-1.231h13.542c0.679 0 1.229 0.546 1.229 1.231 0 0.68-0.551 1.231-1.229 1.231h-13.542c-0.679 0-1.229-0.546-1.229-1.231zM18.462 4.923c0-0.68 0.551-1.231 1.229-1.231h13.542c0.679 0 1.229 0.546 1.229 1.231 0 0.68-0.551 1.231-1.229 1.231h-13.542c-0.679 0-1.229-0.546-1.229-1.231zM0 8.615c0-0.68 0.555-1.231 1.224-1.231h20.936c0.676 0 1.224 0.546 1.224 1.231 0 0.68-0.555 1.231-1.224 1.231h-20.936c-0.676 0-1.224-0.546-1.224-1.231zM24.615 8.615c0-0.68 0.549-1.231 1.228-1.231h8.621c0.678 0 1.228 0.546 1.228 1.231 0 0.68-0.549 1.231-1.228 1.231h-8.621c-0.678 0-1.228-0.546-1.228-1.231zM6.154 12.308c0-0.68 0.56-1.231 1.221-1.231h22.174c0.674 0 1.221 0.546 1.221 1.231 0 0.68-0.56 1.231-1.221 1.231h-22.174c-0.674 0-1.221-0.546-1.221-1.231zM32 12.308c0-0.68 0.545-1.231 1.23-1.231h1.233c0.679 0 1.23 0.546 1.23 1.231 0 0.68-0.545 1.231-1.23 1.231h-1.233c-0.679 0-1.23-0.546-1.23-1.231zM0 16c0-0.68 0.553-1.231 1.24-1.231h15.982c0.685 0 1.24 0.546 1.24 1.231 0 0.68-0.553 1.231-1.24 1.231h-15.982c-0.685 0-1.24-0.546-1.24-1.231zM19.692 16c0-0.68 0.561-1.231 1.234-1.231h12.302c0.681 0 1.234 0.546 1.234 1.231 0 0.68-0.561 1.231-1.234 1.231h-12.302c-0.681 0-1.234-0.546-1.234-1.231zM0 12.308c0-0.68 0.546-1.231 1.242-1.231h2.438c0.686 0 1.242 0.546 1.242 1.231 0 0.68-0.546 1.231-1.242 1.231h-2.438c-0.686 0-1.242-0.546-1.242-1.231zM20.923 19.692c0-0.68 0.549-1.231 1.228-1.231h8.621c0.678 0 1.228 0.546 1.228 1.231 0 0.68-0.549 1.231-1.228 1.231h-8.621c-0.678 0-1.228-0.546-1.228-1.231zM3.692 19.692c0-0.68 0.551-1.231 1.229-1.231h13.542c0.679 0 1.229 0.546 1.229 1.231 0 0.68-0.551 1.231-1.229 1.231h-13.542c-0.679 0-1.229-0.546-1.229-1.231zM8.615 23.385c0-0.68 0.554-1.231 1.239-1.231h14.752c0.684 0 1.239 0.546 1.239 1.231 0 0.68-0.554 1.231-1.239 1.231h-14.752c-0.684 0-1.239-0.546-1.239-1.231zM12.308 27.077c0-0.68 0.549-1.231 1.228-1.231h8.621c0.678 0 1.228 0.546 1.228 1.231 0 0.68-0.549 1.231-1.228 1.231h-8.621c-0.678 0-1.228-0.546-1.228-1.231zM16 30.769c0-0.68 0.545-1.231 1.23-1.231h1.233c0.679 0 1.23 0.546 1.23 1.231 0 0.68-0.545 1.231-1.23 1.231h-1.233c-0.679 0-1.23-0.546-1.23-1.231z"></path> <path fill="#000000" d="M54.993 21.81v-0.325c-0.441 0.505-0.875 0.915-1.304 1.232s-0.893 0.557-1.394 0.721c-0.501 0.164-1.048 0.246-1.641 0.246-0.785 0-1.512-0.166-2.181-0.499s-1.248-0.807-1.737-1.424c-0.489-0.617-0.859-1.342-1.112-2.175s-0.379-1.735-0.379-2.704c0-2.051 0.501-3.65 1.502-4.796s2.32-1.719 3.954-1.719c0.946 0 1.743 0.162 2.392 0.487s1.282 0.823 1.899 1.496v-4.844c0-0.673 0.134-1.182 0.403-1.526s0.651-0.517 1.148-0.517c0.497 0 0.879 0.158 1.148 0.475s0.403 0.783 0.403 1.4v14.471c0 0.625-0.144 1.094-0.433 1.406s-0.661 0.469-1.118 0.469c-0.449 0-0.819-0.162-1.112-0.487s-0.439-0.787-0.439-1.388zM48.538 16.99c0 0.889 0.138 1.647 0.415 2.272s0.655 1.096 1.136 1.412c0.481 0.317 1.006 0.475 1.575 0.475 0.577 0 1.104-0.15 1.581-0.451s0.857-0.761 1.142-1.382c0.284-0.621 0.427-1.396 0.427-2.326 0-0.873-0.142-1.625-0.427-2.254s-0.669-1.11-1.154-1.442c-0.485-0.333-1.016-0.499-1.593-0.499-0.601 0-1.138 0.17-1.611 0.511s-0.839 0.829-1.1 1.466c-0.26 0.637-0.391 1.376-0.391 2.218zM70.546 17.82h-6.418c0.008 0.745 0.158 1.402 0.451 1.971s0.681 0.998 1.166 1.286c0.485 0.288 1.020 0.433 1.605 0.433 0.393 0 0.751-0.046 1.076-0.138s0.639-0.236 0.944-0.433c0.305-0.196 0.585-0.407 0.841-0.631s0.589-0.529 0.998-0.913c0.168-0.144 0.409-0.216 0.721-0.216 0.337 0 0.609 0.092 0.817 0.276s0.313 0.445 0.313 0.781c0 0.296-0.116 0.643-0.349 1.040s-0.583 0.777-1.052 1.142c-0.469 0.365-1.058 0.667-1.767 0.907s-1.524 0.361-2.446 0.361c-2.107 0-3.746-0.601-4.916-1.803s-1.755-2.833-1.755-4.892c0-0.97 0.144-1.869 0.433-2.698s0.709-1.54 1.262-2.133c0.553-0.593 1.234-1.048 2.043-1.364s1.707-0.475 2.692-0.475c1.282 0 2.382 0.27 3.299 0.811s1.605 1.24 2.061 2.097c0.457 0.857 0.685 1.731 0.685 2.62 0 0.825-0.236 1.36-0.709 1.605s-1.138 0.367-1.995 0.367zM64.127 15.957h5.95c-0.080-1.122-0.383-1.961-0.907-2.518s-1.216-0.835-2.073-0.835c-0.817 0-1.488 0.282-2.013 0.847s-0.843 1.4-0.956 2.506zM78.334 12.387l2.656 7.452 2.861-7.776c0.224-0.625 0.445-1.068 0.661-1.328s0.545-0.391 0.986-0.391c0.417 0 0.771 0.14 1.064 0.421s0.439 0.605 0.439 0.974c0 0.144-0.026 0.313-0.078 0.505s-0.112 0.373-0.18 0.541c-0.068 0.168-0.146 0.361-0.234 0.577l-3.149 7.813c-0.088 0.224-0.202 0.509-0.343 0.853s-0.296 0.639-0.469 0.883c-0.172 0.244-0.385 0.435-0.637 0.571s-0.559 0.204-0.919 0.204c-0.465 0-0.835-0.106-1.112-0.319s-0.481-0.445-0.613-0.697c-0.132-0.252-0.355-0.751-0.667-1.496l-3.125-7.728c-0.072-0.192-0.146-0.385-0.222-0.577s-0.14-0.389-0.192-0.589c-0.052-0.2-0.078-0.373-0.078-0.517 0-0.224 0.068-0.447 0.204-0.667s0.325-0.401 0.565-0.541c0.24-0.14 0.501-0.21 0.781-0.21 0.545 0 0.919 0.156 1.124 0.469s0.431 0.837 0.679 1.575zM100.269 17.255v4.363c0 0.689-0.156 1.206-0.469 1.55s-0.725 0.517-1.238 0.517c-0.497 0-0.899-0.172-1.208-0.517s-0.463-0.861-0.463-1.55v-5.228c0-0.825-0.028-1.466-0.084-1.923s-0.208-0.831-0.457-1.124c-0.248-0.292-0.641-0.439-1.178-0.439-1.074 0-1.781 0.369-2.121 1.106s-0.511 1.795-0.511 3.173v4.435c0 0.681-0.154 1.196-0.463 1.544s-0.715 0.523-1.22 0.523c-0.497 0-0.903-0.174-1.22-0.523s-0.475-0.863-0.475-1.544v-9.387c0-0.617 0.142-1.086 0.427-1.406s0.659-0.481 1.124-0.481c0.449 0 0.823 0.15 1.124 0.451s0.451 0.715 0.451 1.244v0.313c0.569-0.681 1.178-1.182 1.827-1.502s1.37-0.481 2.163-0.481c0.825 0 1.534 0.164 2.127 0.493s1.082 0.825 1.466 1.49c0.553-0.673 1.146-1.172 1.779-1.496s1.334-0.487 2.103-0.487c0.897 0 1.671 0.176 2.32 0.529s1.134 0.857 1.454 1.514c0.28 0.593 0.421 1.526 0.421 2.8v6.406c0 0.689-0.156 1.206-0.469 1.55s-0.725 0.517-1.238 0.517c-0.497 0-0.903-0.174-1.22-0.523s-0.475-0.863-0.475-1.544v-5.517c0-0.705-0.030-1.27-0.090-1.695s-0.222-0.781-0.487-1.070c-0.264-0.288-0.665-0.433-1.202-0.433-0.433 0-0.843 0.128-1.232 0.385s-0.691 0.601-0.907 1.034c-0.24 0.553-0.361 1.53-0.361 2.933zM119.428 21.834c-0.793 0.617-1.561 1.080-2.302 1.388s-1.573 0.463-2.494 0.463c-0.841 0-1.581-0.166-2.218-0.499s-1.128-0.783-1.472-1.352c-0.345-0.569-0.517-1.186-0.517-1.851 0-0.897 0.284-1.663 0.853-2.296s1.35-1.058 2.344-1.274c0.208-0.048 0.725-0.156 1.55-0.325s1.532-0.322 2.121-0.463c0.589-0.14 1.228-0.31 1.917-0.511-0.040-0.865-0.214-1.5-0.523-1.905s-0.948-0.607-1.917-0.607c-0.833 0-1.46 0.116-1.881 0.349s-0.781 0.581-1.082 1.046c-0.3 0.465-0.513 0.771-0.637 0.919s-0.391 0.222-0.799 0.222c-0.369 0-0.687-0.118-0.956-0.355s-0.403-0.539-0.403-0.907c0-0.577 0.204-1.138 0.613-1.683s1.046-0.994 1.911-1.346c0.865-0.353 1.943-0.529 3.233-0.529 1.442 0 2.576 0.17 3.401 0.511s1.408 0.879 1.749 1.617c0.341 0.737 0.511 1.715 0.511 2.933 0 0.769-0.002 1.422-0.006 1.959s-0.010 1.134-0.018 1.791c0 0.617 0.102 1.26 0.306 1.929s0.306 1.1 0.306 1.292c0 0.337-0.158 0.643-0.475 0.919s-0.675 0.415-1.076 0.415c-0.337 0-0.669-0.158-0.998-0.475s-0.677-0.775-1.046-1.376zM119.212 17.087c-0.481 0.176-1.18 0.363-2.097 0.559s-1.552 0.341-1.905 0.433c-0.353 0.092-0.689 0.272-1.010 0.541s-0.481 0.643-0.481 1.124c0 0.497 0.188 0.919 0.565 1.268s0.869 0.523 1.478 0.523c0.649 0 1.248-0.142 1.797-0.427s0.952-0.651 1.208-1.1c0.296-0.497 0.445-1.314 0.445-2.452v-0.469zM128.743 12.159v0.397c0.577-0.761 1.208-1.32 1.893-1.677s1.472-0.535 2.362-0.535c0.865 0 1.639 0.188 2.32 0.565s1.19 0.909 1.526 1.599c0.216 0.401 0.357 0.833 0.421 1.298s0.096 1.058 0.096 1.779v6.106c0 0.657-0.15 1.154-0.451 1.49s-0.691 0.505-1.172 0.505c-0.489 0-0.885-0.172-1.19-0.517s-0.457-0.837-0.457-1.478v-5.469c0-1.082-0.15-1.909-0.451-2.482s-0.899-0.859-1.797-0.859c-0.585 0-1.118 0.174-1.599 0.523s-0.833 0.827-1.058 1.436c-0.16 0.489-0.24 1.402-0.24 2.74v4.111c0 0.665-0.154 1.164-0.463 1.496s-0.707 0.499-1.196 0.499c-0.473 0-0.861-0.172-1.166-0.517s-0.457-0.837-0.457-1.478v-9.483c0-0.625 0.136-1.092 0.409-1.4s0.645-0.463 1.118-0.463c0.288 0 0.549 0.068 0.781 0.204s0.419 0.341 0.559 0.613c0.14 0.272 0.21 0.605 0.21 0.998z"></path> </svg> 